<svg xmlns="http://www.w3.org/2000/svg" viewBox="0 0 1120 750" font-family="system-ui, -apple-system, sans-serif">
  <defs>
    <filter id="shadow">
      <feDropShadow dx="1" dy="2" stdDeviation="3" flood-opacity="0.4"/>
    </filter>
    <marker id="bluearrow" markerWidth="10" markerHeight="7" refX="10" refY="3.5" orient="auto">
      <polygon points="0 0, 10 3.5, 0 7" fill="#7aa2f7"/>
    </marker>
    <marker id="purplearrow" markerWidth="10" markerHeight="7" refX="10" refY="3.5" orient="auto">
      <polygon points="0 0, 10 3.5, 0 7" fill="#bb9af7"/>
    </marker>
  </defs>

  <!-- Host background -->
  <rect x="12" y="12" width="1096" height="726" rx="16" fill="#1a1b26" stroke="#33384d" stroke-width="1.5"/>
  <text x="36" y="46" font-size="16" font-weight="700" fill="#565f89" letter-spacing="2">YOUR DEV MACHINE</text>

  <!-- Fishbowl container -->
  <rect x="36" y="64" width="600" height="380" rx="14" fill="#1f2335" stroke="#f7768e" stroke-width="3" stroke-dasharray="12 6" filter="url(#shadow)"/>
  <text x="66" y="100" font-size="24" font-weight="800" fill="#f7768e">Fishbowl Container</text>
  <text x="66" y="124" font-size="14" fill="#565f89" font-family="monospace">--cap-drop ALL   --read-only   --no-new-privileges</text>

  <!-- Agent box -->
  <rect x="66" y="142" width="540" height="120" rx="12" fill="#292e42" stroke="#f7768e" stroke-width="1.5" opacity="0.85"/>
  <text x="96" y="178" font-size="24" font-weight="800" fill="#f7768e">AI Agent</text>
  <text x="240" y="178" font-size="18" fill="#787c99">(Codex / Claude Code)</text>
  <text x="96" y="210" font-size="17" fill="#a9b1d6" font-family="monospace">$ npm install</text>
  <text x="340" y="210" font-size="17" fill="#a9b1d6" font-family="monospace">$ curl api.example.com</text>
  <text x="96" y="238" font-size="17" fill="#a9b1d6" font-family="monospace">$ cat .env</text>
  <text x="340" y="238" font-size="17" fill="#a9b1d6" font-family="monospace">$ export SECRET_KEY=...</text>

  <!-- In-container watchers -->
  <rect x="66" y="280" width="540" height="78" rx="12" fill="#292e42" stroke="#33384d" stroke-width="1"/>
  <text x="96" y="310" font-size="16" font-weight="700" fill="#a9b1d6">In-Container Watchers</text>
  <text x="96" y="340" font-size="16" fill="#565f89">bash env hooks</text>
  <text x="280" y="340" font-size="16" fill="#565f89">file watcher (inotify)</text>
  <text x="500" y="340" font-size="16" fill="#565f89">net poller</text>

  <!-- Connector: container to logs -->
  <line x1="336" y1="384" x2="336" y2="484" stroke="#33384d" stroke-width="2" stroke-dasharray="6 4"/>
  <text x="346" y="438" font-size="14" fill="#565f89">events</text>

  <!-- eBPF observers -->
  <rect x="668" y="64" width="404" height="380" rx="14" fill="#1f2335" stroke="#7aa2f7" stroke-width="2" filter="url(#shadow)"/>
  <text x="700" y="100" font-size="24" font-weight="800" fill="#7aa2f7">Host-Side eBPF</text>
  <text x="700" y="128" font-size="16" fill="#3d59a1">Observing from outside the container</text>
  <text x="700" y="152" font-size="16" fill="#3d59a1">at the kernel syscall layer</text>

  <!-- exec collector -->
  <rect x="700" y="172" width="340" height="66" rx="10" fill="#292e42" stroke="#3d59a1" stroke-width="1.5"/>
  <text x="732" y="202" font-size="20" font-weight="700" fill="#7aa2f7">exec collector</text>
  <text x="732" y="226" font-size="15" fill="#3d59a1">every process spawn (execve)</text>

  <!-- connect collector -->
  <rect x="700" y="252" width="340" height="66" rx="10" fill="#292e42" stroke="#3d59a1" stroke-width="1.5"/>
  <text x="732" y="282" font-size="20" font-weight="700" fill="#7aa2f7">connect collector</text>
  <text x="732" y="306" font-size="15" fill="#3d59a1">every network call (connect)</text>

  <!-- file collector -->
  <rect x="700" y="332" width="340" height="66" rx="10" fill="#292e42" stroke="#3d59a1" stroke-width="1.5"/>
  <text x="732" y="362" font-size="20" font-weight="700" fill="#7aa2f7">file collector</text>
  <text x="732" y="386" font-size="15" fill="#3d59a1">credential file access (openat)</text>

  <!-- eBPF observe arrow -->
  <path d="M 636 270 L 668 270" stroke="#7aa2f7" stroke-width="2.5" marker-end="url(#bluearrow)"/>
  <text x="598" y="252" font-size="14" font-weight="600" fill="#7aa2f7">observes</text>

  <!-- Connector: eBPF to logs -->
  <line x1="870" y1="410" x2="870" y2="484" stroke="#33384d" stroke-width="2" stroke-dasharray="6 4"/>
  <text x="880" y="452" font-size="14" fill="#565f89">events</text>

  <!-- Session logs -->
  <rect x="36" y="484" width="1036" height="136" rx="14" fill="#1f2335" stroke="#9d7cd8" stroke-width="2" filter="url(#shadow)"/>
  <text x="66" y="520" font-size="24" font-weight="800" fill="#bb9af7">Session Logs</text>
  <text x="258" y="520" font-size="16" fill="#565f89">~/.fishbowl/logs/session-&lt;timestamp&gt;/</text>
  <text x="258" y="542" font-size="14" font-weight="600" fill="#9d7cd8">Persisted on the host — survives container teardown</text>

  <rect x="66" y="556" width="230" height="42" rx="8" fill="#292e42" stroke="#9d7cd8" stroke-width="1.5"/>
  <text x="181" y="583" font-size="17" font-weight="700" fill="#bb9af7" text-anchor="middle">audit.jsonl</text>

  <rect x="316" y="556" width="230" height="42" rx="8" fill="#292e42" stroke="#9d7cd8" stroke-width="1.5"/>
  <text x="431" y="583" font-size="17" font-weight="700" fill="#bb9af7" text-anchor="middle">registry.json</text>

  <rect x="566" y="556" width="230" height="42" rx="8" fill="#292e42" stroke="#9d7cd8" stroke-width="1.5"/>
  <text x="681" y="583" font-size="17" font-weight="700" fill="#bb9af7" text-anchor="middle">ebpf_*.jsonl</text>

  <rect x="816" y="556" width="230" height="42" rx="8" fill="#292e42" stroke="#9d7cd8" stroke-width="1.5"/>
  <text x="931" y="583" font-size="17" font-weight="700" fill="#bb9af7" text-anchor="middle">findings.jsonl</text>

  <!-- Audit report -->
  <rect x="280" y="660" width="560" height="52" rx="12" fill="#9d7cd8" filter="url(#shadow)"/>
  <text x="346" y="693" font-size="22" font-weight="800" fill="#1a1b26">fishbowl audit</text>
  <text x="538" y="693" font-size="18" fill="#292e42">session report</text>

  <!-- Arrow: logs to audit -->
  <path d="M 560 620 L 560 660" stroke="#bb9af7" stroke-width="3" marker-end="url(#purplearrow)"/>
</svg>
