<svg xmlns="http://www.w3.org/2000/svg" viewBox="0 0 1040 700" font-family="system-ui, -apple-system, sans-serif">
  <defs>
    <filter id="shadow">
      <feDropShadow dx="1" dy="2" stdDeviation="3" flood-opacity="0.4"/>
    </filter>
    <marker id="bluearrow" markerWidth="10" markerHeight="7" refX="10" refY="3.5" orient="auto">
      <polygon points="0 0, 10 3.5, 0 7" fill="#7aa2f7"/>
    </marker>
    <marker id="purplearrow" markerWidth="10" markerHeight="7" refX="10" refY="3.5" orient="auto">
      <polygon points="0 0, 10 3.5, 0 7" fill="#bb9af7"/>
    </marker>
  </defs>

  <!-- Host background -->
  <rect x="12" y="12" width="1016" height="676" rx="16" fill="#1a1b26" stroke="#33384d" stroke-width="1.5"/>
  <text x="36" y="44" font-size="15" font-weight="700" fill="#565f89" letter-spacing="2">YOUR DEV MACHINE</text>

  <!-- AgentFence container -->
  <rect x="36" y="62" width="560" height="366" rx="14" fill="#1f2335" stroke="#f7768e" stroke-width="3" stroke-dasharray="12 6" filter="url(#shadow)"/>
  <text x="64" y="96" font-size="22" font-weight="800" fill="#f7768e">AgentFence Container</text>
  <text x="64" y="118" font-size="13" fill="#565f89" font-family="monospace">--cap-drop ALL    --read-only    --security-opt no-new-privileges</text>

  <!-- Agent box -->
  <rect x="64" y="136" width="504" height="116" rx="12" fill="#292e42" stroke="#f7768e" stroke-width="1.5" opacity="0.85"/>
  <text x="92" y="170" font-size="22" font-weight="800" fill="#f7768e">AI Agent</text>
  <text x="220" y="170" font-size="17" fill="#787c99">(Codex / Claude Code)</text>
  <text x="92" y="200" font-size="16" fill="#a9b1d6" font-family="monospace">$ npm install</text>
  <text x="320" y="200" font-size="16" fill="#a9b1d6" font-family="monospace">$ curl api.example.com</text>
  <text x="92" y="226" font-size="16" fill="#a9b1d6" font-family="monospace">$ cat .env</text>
  <text x="320" y="226" font-size="16" fill="#a9b1d6" font-family="monospace">$ export SECRET_KEY=...</text>

  <!-- In-container watchers -->
  <rect x="64" y="270" width="504" height="74" rx="12" fill="#292e42" stroke="#33384d" stroke-width="1"/>
  <text x="92" y="298" font-size="15" font-weight="700" fill="#a9b1d6">In-Container Watchers</text>
  <text x="92" y="326" font-size="15" fill="#565f89">bash env hooks</text>
  <text x="270" y="326" font-size="15" fill="#565f89">file watcher (inotify)</text>
  <text x="470" y="326" font-size="15" fill="#565f89">net poller</text>

  <!-- Connector: container to logs -->
  <line x1="316" y1="370" x2="316" y2="462" stroke="#33384d" stroke-width="2" stroke-dasharray="6 4"/>
  <text x="326" y="420" font-size="13" fill="#565f89">events</text>

  <!-- eBPF observers -->
  <rect x="628" y="62" width="372" height="366" rx="14" fill="#1f2335" stroke="#7aa2f7" stroke-width="2" filter="url(#shadow)"/>
  <text x="660" y="96" font-size="22" font-weight="800" fill="#7aa2f7">Host-Side eBPF</text>
  <text x="660" y="122" font-size="15" fill="#3d59a1">Observing from outside the container</text>
  <text x="660" y="144" font-size="15" fill="#3d59a1">at the kernel syscall layer</text>

  <!-- exec collector -->
  <rect x="660" y="164" width="312" height="62" rx="10" fill="#292e42" stroke="#3d59a1" stroke-width="1.5"/>
  <text x="688" y="192" font-size="18" font-weight="700" fill="#7aa2f7">exec collector</text>
  <text x="688" y="214" font-size="14" fill="#3d59a1">every process spawn (execve)</text>

  <!-- connect collector -->
  <rect x="660" y="240" width="312" height="62" rx="10" fill="#292e42" stroke="#3d59a1" stroke-width="1.5"/>
  <text x="688" y="268" font-size="18" font-weight="700" fill="#7aa2f7">connect collector</text>
  <text x="688" y="290" font-size="14" fill="#3d59a1">every network call (connect)</text>

  <!-- file collector -->
  <rect x="660" y="316" width="312" height="62" rx="10" fill="#292e42" stroke="#3d59a1" stroke-width="1.5"/>
  <text x="688" y="344" font-size="18" font-weight="700" fill="#7aa2f7">file collector</text>
  <text x="688" y="366" font-size="14" fill="#3d59a1">credential file access (openat)</text>

  <!-- eBPF observe arrow -->
  <path d="M 596 260 L 628 260" stroke="#7aa2f7" stroke-width="2.5" marker-end="url(#bluearrow)"/>
  <text x="560" y="240" font-size="13" font-weight="600" fill="#7aa2f7">observes</text>

  <!-- Connector: eBPF to logs -->
  <line x1="816" y1="390" x2="816" y2="462" stroke="#33384d" stroke-width="2" stroke-dasharray="6 4"/>
  <text x="826" y="430" font-size="13" fill="#565f89">events</text>

  <!-- Session logs -->
  <rect x="36" y="462" width="964" height="128" rx="14" fill="#1f2335" stroke="#9d7cd8" stroke-width="2" filter="url(#shadow)"/>
  <text x="64" y="496" font-size="22" font-weight="800" fill="#bb9af7">Session Logs</text>
  <text x="240" y="496" font-size="15" fill="#565f89">~/.agentfence/logs/session-&lt;timestamp&gt;/</text>

  <rect x="64" y="514" width="170" height="40" rx="8" fill="#292e42" stroke="#9d7cd8" stroke-width="1.5"/>
  <text x="88" y="540" font-size="16" font-weight="700" fill="#bb9af7">audit.jsonl</text>

  <rect x="254" y="514" width="180" height="40" rx="8" fill="#292e42" stroke="#9d7cd8" stroke-width="1.5"/>
  <text x="278" y="540" font-size="16" font-weight="700" fill="#bb9af7">registry.json</text>

  <rect x="454" y="514" width="190" height="40" rx="8" fill="#292e42" stroke="#9d7cd8" stroke-width="1.5"/>
  <text x="478" y="540" font-size="16" font-weight="700" fill="#bb9af7">ebpf_*.jsonl</text>

  <rect x="664" y="514" width="190" height="40" rx="8" fill="#292e42" stroke="#9d7cd8" stroke-width="1.5"/>
  <text x="688" y="540" font-size="16" font-weight="700" fill="#bb9af7">findings.jsonl</text>

  <text x="64" y="580" font-size="14" fill="#565f89">Credential values are never logged. Env var previews redacted to 4 chars + length.</text>

  <!-- Audit report -->
  <rect x="260" y="620" width="520" height="48" rx="12" fill="#9d7cd8" filter="url(#shadow)"/>
  <text x="320" y="651" font-size="20" font-weight="800" fill="#1a1b26">agentfence audit</text>
  <text x="500" y="651" font-size="17" fill="#292e42">session report</text>

  <!-- Arrow: logs to audit -->
  <path d="M 520 590 L 520 620" stroke="#bb9af7" stroke-width="3" marker-end="url(#purplearrow)"/>
</svg>
