<svg xmlns="http://www.w3.org/2000/svg" viewBox="0 0 1200 380" font-family="system-ui, -apple-system, sans-serif">
  <defs>
    <filter id="shadow">
      <feDropShadow dx="1" dy="2" stdDeviation="2" flood-opacity="0.3"/>
    </filter>
    <marker id="arrow" markerWidth="8" markerHeight="6" refX="8" refY="3" orient="auto">
      <polygon points="0 0, 8 3, 0 6" fill="#565f89"/>
    </marker>
    <marker id="purplearrow" markerWidth="8" markerHeight="6" refX="8" refY="3" orient="auto">
      <polygon points="0 0, 8 3, 0 6" fill="#bb9af7"/>
    </marker>
  </defs>

  <rect x="0" y="0" width="1200" height="380" rx="12" fill="#1a1b26" stroke="#33384d" stroke-width="1"/>

  <!-- Step 1 -->
  <rect x="20" y="40" width="140" height="120" rx="10" fill="#292e42" stroke="#f7768e" stroke-width="1.5" filter="url(#shadow)"/>
  <text x="90" y="72" font-size="15" font-weight="800" fill="#f7768e" text-anchor="middle">1. Host Scan</text>
  <text x="90" y="96" font-size="13" fill="#565f89" text-anchor="middle">140+ credential</text>
  <text x="90" y="114" font-size="13" fill="#565f89" text-anchor="middle">paths checked</text>
  <text x="90" y="146" font-size="12" fill="#3d59a1" text-anchor="middle">~/.aws, ~/.ssh, .env</text>

  <path d="M 160 100 L 182 100" stroke="#565f89" stroke-width="1.5" marker-end="url(#arrow)"/>

  <!-- Step 2 -->
  <rect x="182" y="40" width="140" height="120" rx="10" fill="#292e42" stroke="#f7768e" stroke-width="1.5" filter="url(#shadow)"/>
  <text x="252" y="72" font-size="15" font-weight="800" fill="#f7768e" text-anchor="middle">2. Detect Agent</text>
  <text x="252" y="96" font-size="13" fill="#565f89" text-anchor="middle">Codex or Claude</text>
  <text x="252" y="114" font-size="13" fill="#565f89" text-anchor="middle">auto-detected</text>
  <text x="252" y="146" font-size="12" fill="#3d59a1" text-anchor="middle">CLAUDE.md, ~/.codex/</text>

  <path d="M 322 100 L 344 100" stroke="#565f89" stroke-width="1.5" marker-end="url(#arrow)"/>

  <!-- Step 3 -->
  <rect x="344" y="40" width="140" height="120" rx="10" fill="#292e42" stroke="#bb9af7" stroke-width="1.5" filter="url(#shadow)"/>
  <text x="414" y="72" font-size="15" font-weight="800" fill="#bb9af7" text-anchor="middle">3. Seed Registry</text>
  <text x="414" y="96" font-size="13" fill="#565f89" text-anchor="middle">Credential paths</text>
  <text x="414" y="114" font-size="13" fill="#565f89" text-anchor="middle">mapped to container</text>
  <text x="414" y="146" font-size="12" fill="#3d59a1" text-anchor="middle">registry.json</text>

  <path d="M 484 100 L 506 100" stroke="#565f89" stroke-width="1.5" marker-end="url(#arrow)"/>

  <!-- Step 4 -->
  <rect x="506" y="40" width="140" height="120" rx="10" fill="#292e42" stroke="#9ece6a" stroke-width="1.5" filter="url(#shadow)"/>
  <text x="576" y="72" font-size="15" font-weight="800" fill="#9ece6a" text-anchor="middle">4. Launch</text>
  <text x="576" y="96" font-size="13" fill="#565f89" text-anchor="middle">Docker container</text>
  <text x="576" y="114" font-size="13" fill="#565f89" text-anchor="middle">hardened + isolated</text>
  <text x="576" y="146" font-size="12" fill="#3d59a1" text-anchor="middle">--cap-drop ALL</text>

  <path d="M 646 100 L 668 100" stroke="#565f89" stroke-width="1.5" marker-end="url(#arrow)"/>

  <!-- Step 5 -->
  <rect x="668" y="40" width="140" height="120" rx="10" fill="#292e42" stroke="#7aa2f7" stroke-width="1.5" filter="url(#shadow)"/>
  <text x="738" y="72" font-size="15" font-weight="800" fill="#7aa2f7" text-anchor="middle">5. Monitor</text>
  <text x="738" y="96" font-size="13" fill="#565f89" text-anchor="middle">eBPF probes</text>
  <text x="738" y="114" font-size="13" fill="#565f89" text-anchor="middle">exec / connect / file</text>
  <text x="738" y="146" font-size="12" fill="#3d59a1" text-anchor="middle">strongest available</text>

  <path d="M 808 100 L 830 100" stroke="#565f89" stroke-width="1.5" marker-end="url(#arrow)"/>

  <!-- Step 6 -->
  <rect x="830" y="40" width="140" height="120" rx="10" fill="#292e42" stroke="#e0af68" stroke-width="1.5" filter="url(#shadow)"/>
  <text x="900" y="72" font-size="15" font-weight="800" fill="#e0af68" text-anchor="middle">6. Agent Runs</text>
  <text x="900" y="96" font-size="13" fill="#565f89" text-anchor="middle">Every credential</text>
  <text x="900" y="114" font-size="13" fill="#565f89" text-anchor="middle">access captured</text>
  <text x="900" y="146" font-size="12" fill="#3d59a1" text-anchor="middle">observation-only</text>

  <path d="M 970 100 L 992 100" stroke="#565f89" stroke-width="1.5" marker-end="url(#arrow)"/>

  <!-- Step 7 -->
  <rect x="992" y="40" width="140" height="120" rx="10" fill="#292e42" stroke="#9ece6a" stroke-width="1.5" filter="url(#shadow)"/>
  <text x="1062" y="72" font-size="15" font-weight="800" fill="#9ece6a" text-anchor="middle">7. Shutdown</text>
  <text x="1062" y="96" font-size="13" fill="#565f89" text-anchor="middle">Drain collectors</text>
  <text x="1062" y="114" font-size="13" fill="#565f89" text-anchor="middle">sync session back</text>
  <text x="1062" y="146" font-size="12" fill="#3d59a1" text-anchor="middle">merge watcher logs</text>

  <path d="M 1062 160 L 1062 194" stroke="#bb9af7" stroke-width="2" marker-end="url(#purplearrow)"/>

  <rect x="942" y="194" width="240" height="48" rx="10" fill="#9d7cd8" filter="url(#shadow)"/>
  <text x="1062" y="224" font-size="17" font-weight="700" fill="#1a1b26" text-anchor="middle">agentfence audit</text>

  <text x="20" y="290" font-size="16" font-weight="700" fill="#a9b1d6">Trust boundary</text>
  <text x="20" y="314" font-size="14" fill="#565f89">Steps 1-3 run on the host before the container starts.</text>
  <text x="20" y="336" font-size="14" fill="#565f89">Steps 4-6 run inside the Docker sandbox.</text>
  <text x="20" y="358" font-size="14" fill="#565f89">Step 7 merges results back to the host after the agent exits.</text>
</svg>
