<svg xmlns="http://www.w3.org/2000/svg" viewBox="0 0 1020 480" font-family="system-ui, -apple-system, sans-serif">
  <defs>
    <filter id="shadow">
      <feDropShadow dx="1" dy="2" stdDeviation="2" flood-opacity="0.1"/>
    </filter>
    <marker id="allow" markerWidth="8" markerHeight="6" refX="8" refY="3" orient="auto">
      <polygon points="0 0, 8 3, 0 6" fill="#2e7d32"/>
    </marker>
    <marker id="prompt" markerWidth="8" markerHeight="6" refX="8" refY="3" orient="auto">
      <polygon points="0 0, 8 3, 0 6" fill="#e67700"/>
    </marker>
    <marker id="explicit" markerWidth="8" markerHeight="6" refX="8" refY="3" orient="auto">
      <polygon points="0 0, 8 3, 0 6" fill="#4263eb"/>
    </marker>
  </defs>

  <rect x="0" y="0" width="1020" height="480" rx="12" fill="#f8f9fa" stroke="#dee2e6" stroke-width="1"/>

  <!-- Title -->
  <text x="510" y="36" font-size="20" font-weight="800" fill="#495057" text-anchor="middle">What enters the container?</text>

  <!-- Host column -->
  <rect x="20" y="54" width="300" height="406" rx="12" fill="#fff" stroke="#dee2e6" stroke-width="1.5" filter="url(#shadow)"/>
  <text x="170" y="84" font-size="18" font-weight="700" fill="#495057" text-anchor="middle">Host</text>

  <text x="40" y="120" font-size="15" fill="#495057">~/.codex/auth.json</text>
  <text x="40" y="148" font-size="15" fill="#495057">~/.claude/.credentials.json</text>
  <text x="40" y="190" font-size="15" fill="#495057">~/.ssh/id_ed25519</text>
  <text x="40" y="218" font-size="15" fill="#495057">~/.ssh/prod_key</text>
  <text x="40" y="260" font-size="15" fill="#495057">GH_TOKEN</text>
  <text x="40" y="288" font-size="15" fill="#495057">AWS_SECRET_ACCESS_KEY</text>
  <text x="40" y="330" font-size="15" fill="#495057">.agentfence.toml mounts</text>
  <text x="40" y="372" font-size="15" fill="#495057">.agentfence.toml network</text>
  <text x="40" y="400" font-size="15" fill="#495057">.agentfence.toml monitor</text>
  <text x="40" y="442" font-size="15" fill="#495057">host_scan.json</text>

  <!-- Gate column -->
  <rect x="350" y="54" width="260" height="406" rx="12" fill="#f8f9fa" stroke="#dee2e6" stroke-width="1" filter="url(#shadow)"/>
  <text x="480" y="84" font-size="18" font-weight="700" fill="#495057" text-anchor="middle">Gate</text>

  <rect x="370" y="104" width="220" height="56" rx="8" fill="#e8f5e9" stroke="#2e7d32" stroke-width="1.5"/>
  <text x="480" y="130" font-size="15" font-weight="700" fill="#2e7d32" text-anchor="middle">Auto (user chose agent)</text>
  <text x="480" y="150" font-size="13" fill="#558b2f" text-anchor="middle">file-based auth only</text>

  <rect x="370" y="174" width="220" height="56" rx="8" fill="#fff9db" stroke="#e67700" stroke-width="1.5"/>
  <text x="480" y="200" font-size="15" font-weight="700" fill="#e67700" text-anchor="middle">Interactive prompt</text>
  <text x="480" y="220" font-size="13" fill="#f08c00" text-anchor="middle">user picks from list</text>

  <rect x="370" y="244" width="220" height="56" rx="8" fill="#edf2ff" stroke="#4263eb" stroke-width="1.5"/>
  <text x="480" y="270" font-size="15" font-weight="700" fill="#364fc7" text-anchor="middle">Explicit --mount</text>
  <text x="480" y="290" font-size="13" fill="#5c7cfa" text-anchor="middle">or --trust-config</text>

  <rect x="370" y="316" width="220" height="56" rx="8" fill="#fff5f5" stroke="#c92a2a" stroke-width="1.5"/>
  <text x="480" y="342" font-size="15" font-weight="700" fill="#c92a2a" text-anchor="middle">Blocked</text>
  <text x="480" y="362" font-size="13" fill="#e03131" text-anchor="middle">CLI flags only</text>

  <rect x="370" y="386" width="220" height="56" rx="8" fill="#fff5f5" stroke="#c92a2a" stroke-width="1.5"/>
  <text x="480" y="412" font-size="15" font-weight="700" fill="#c92a2a" text-anchor="middle">Removed before launch</text>
  <text x="480" y="432" font-size="13" fill="#e03131" text-anchor="middle">host-only location</text>

  <!-- Container column -->
  <rect x="640" y="54" width="360" height="406" rx="12" fill="#fff" stroke="#e03131" stroke-width="2" stroke-dasharray="8 4" filter="url(#shadow)"/>
  <text x="820" y="84" font-size="18" font-weight="700" fill="#e03131" text-anchor="middle">Container</text>

  <!-- Arrows and results -->
  <path d="M 320 130 L 370 130" stroke="#2e7d32" stroke-width="2" marker-end="url(#allow)"/>
  <path d="M 320 148 L 370 148" stroke="#2e7d32" stroke-width="2" marker-end="url(#allow)"/>
  <path d="M 590 132 L 640 132" stroke="#2e7d32" stroke-width="2" marker-end="url(#allow)"/>
  <text x="660" y="126" font-size="14" fill="#2e7d32">/agentfence/home/.codex/</text>
  <text x="660" y="148" font-size="14" fill="#2e7d32">/agentfence/home/.claude/</text>

  <path d="M 320 190 L 370 202" stroke="#e67700" stroke-width="2" marker-end="url(#prompt)"/>
  <path d="M 320 218 L 370 202" stroke="#e67700" stroke-width="2" marker-end="url(#prompt)"/>
  <path d="M 590 202 L 640 202" stroke="#e67700" stroke-width="2" marker-end="url(#prompt)"/>
  <text x="660" y="196" font-size="14" fill="#e67700">/agentfence/ssh/id_ed25519</text>
  <text x="660" y="218" font-size="13" fill="#868e96">(only if user approves)</text>

  <path d="M 320 260 L 370 272" stroke="#4263eb" stroke-width="2" marker-end="url(#explicit)"/>
  <path d="M 320 288 L 370 272" stroke="#4263eb" stroke-width="2" marker-end="url(#explicit)"/>
  <path d="M 320 330 L 370 272" stroke="#4263eb" stroke-width="2" marker-end="url(#explicit)"/>
  <path d="M 590 272 L 640 272" stroke="#4263eb" stroke-width="2" marker-end="url(#explicit)"/>
  <text x="660" y="268" font-size="14" fill="#364fc7">passed via --env-file</text>
  <text x="660" y="290" font-size="13" fill="#868e96">(only with explicit --mount)</text>

  <text x="660" y="346" font-size="14" fill="#c92a2a">network / monitor: ignored</text>
  <text x="660" y="368" font-size="13" fill="#868e96">(use CLI flags instead)</text>

  <text x="660" y="416" font-size="14" fill="#c92a2a">host_scan.json: not visible</text>
  <text x="660" y="438" font-size="13" fill="#868e96">(moved to ~/.agentfence/)</text>
</svg>
